<svg width="192" height="118" viewBox="0 0 192 118" fill="none" xmlns="http://www.w3.org/2000/svg">
<path fill-rule="evenodd" clip-rule="evenodd" d="M39.0886 39.2968L54.7186 35.1345C48.7441 34.57 43.649 36.019 39.0886 39.2968M148.253 74.9108C141.155 74.3826 134.055 73.8536 126.956 73.3246C133.947 75.5813 141.049 76.092 148.253 74.9108M186.289 57.3034C188.647 61.06 189.595 64.5646 185.835 67.7386C184.194 69.124 180.491 69.4081 178.447 68.2784C179.37 70.1788 179.223 71.396 177.001 72.2962C175.17 73.0376 173.775 74.7994 171.967 75.6534C164.678 79.1006 157.229 82.2481 148.954 82.0599C146.833 82.011 144.695 80.0137 142.746 82.4635C137.015 82.561 131.275 82.6825 125.688 81.1058C124.353 80.7283 123.096 80.0745 121.81 79.5296C116.377 77.2246 110.94 74.9267 105.53 72.5689C105.166 72.41 105.06 71.7364 104.751 71.3715C104.483 71.0526 104.097 70.8303 103.763 70.564C102.164 72.6475 100.908 70.4899 100.11 69.8876C97.7078 68.0716 95.6475 65.8085 93.458 63.7153C93.203 63.4726 93.0114 63.0402 92.7234 62.9729C89.5712 62.2315 87.2448 60.6738 85.843 57.5571C85.3477 56.4581 83.5762 55.9266 82.7382 54.6849C82.0643 54.6542 81.2409 54.8651 80.74 54.5565C75.5082 51.3375 70.328 48.0354 65.0554 44.7072C62.7565 45.5543 57.0703 43.8488 55.6463 41.5849C55.4387 42.2293 55.2879 42.6939 55.2836 42.7085C53.8111 42.73 52.4292 42.4768 51.2116 42.8135C45.001 44.5262 38.9017 46.3347 33.5682 50.3421C28.1029 54.4478 22.0485 57.7713 16.4481 61.7121C14.4639 63.108 12.9805 65.2526 11.4147 67.1728C10.4917 68.3048 9.80237 68.7616 8.56786 67.583C5.27444 64.44 4.66129 61.6559 7.86553 58.2476C12.195 53.642 16.7422 48.9941 21.9773 45.5336C28.4389 41.2631 35.5716 37.905 42.658 34.6846C50.2659 31.2269 57.8786 33.0458 65.2241 36.0601C73.26 39.3555 80.4225 44.0056 86.8921 49.8103C94.7196 56.8343 103.774 61.9467 113.41 66.1575C123.506 70.5679 133.999 72.9162 145.009 72.498C153.42 72.1796 161.619 70.7397 169.09 66.4746C174.514 63.378 180.02 60.4241 185.498 57.4219C185.715 57.3031 186.018 57.3402 186.289 57.3034" fill="#F9896B"/>
<path fill-rule="evenodd" clip-rule="evenodd" d="M145.589 49.8326C142.488 46.6447 142.3 45.615 144.359 42.0002C146.558 38.1391 148.943 34.3845 151.234 30.5755C151.607 29.9543 151.838 29.2366 152.268 28.6635C153.022 27.6561 153.879 26.7261 154.693 25.7628C155.295 27.1077 156.34 28.4394 156.386 29.8031C156.44 31.4388 155.991 33.3081 155.152 34.72C152.161 39.7497 148.912 44.6276 145.589 49.8326" fill="#F9896B"/>
<path fill-rule="evenodd" clip-rule="evenodd" d="M111.008 28.3006C110.974 24.9088 110.839 21.396 110.982 17.8938C111.013 17.1442 112.057 16.4345 112.634 15.7064C113.323 16.2816 114.158 16.754 114.662 17.4604C115.169 18.167 115.512 19.0831 115.641 19.9496C116.224 23.893 116.718 27.8507 117.212 31.8075C117.301 32.5228 117.342 33.2751 117.21 33.9737C117.12 34.4521 116.733 35.196 116.408 35.2349C115.889 35.2986 115.062 35.0332 114.797 34.6287C113.514 32.671 112.375 30.619 111.008 28.3006" fill="#F9896B"/>
<path fill-rule="evenodd" clip-rule="evenodd" d="M39.3982 82.6191C36.7165 81.3548 36.1643 79.8091 37.0486 77.8499C38.2369 75.2176 39.4193 72.563 40.8889 70.0856C41.3605 69.2923 42.7341 69.028 43.6946 68.5217C44.2288 69.9468 45.5939 71.745 45.1456 72.7288C43.5927 76.1415 41.4091 79.2708 39.3982 82.6191" fill="#F9896B"/>
<path fill-rule="evenodd" clip-rule="evenodd" d="M58.2047 89.8801C54.3727 85.103 57.3432 80.2982 57.7266 75.5964C57.7626 75.1654 59.0515 74.3667 59.2494 74.4983C60.2314 75.1499 61.8816 76.1857 61.7774 76.8502C61.1137 81.0686 60.0554 85.2265 59.092 89.3964C59.054 89.5608 58.6564 89.6428 58.2047 89.8801" fill="#F9896B"/>
<path fill-rule="evenodd" clip-rule="evenodd" d="M134.246 35.8801C133.722 34.6118 132.709 33.3183 132.768 32.0778C132.933 28.6723 133.475 25.2762 134.044 21.9059C134.166 21.1883 135.033 20.595 135.558 19.9448C136.183 20.618 137.322 21.2774 137.341 21.9669C137.418 24.7314 137.299 27.5252 136.951 30.2703C136.712 32.1572 135.974 33.981 135.459 35.8336C135.055 35.8491 134.65 35.8646 134.246 35.8801" fill="#F9896B"/>
<path fill-rule="evenodd" clip-rule="evenodd" d="M84.0309 81.9546C82.9823 81.7938 82.4666 81.867 82.1748 81.6465C79.1286 79.3353 76.0296 77.0796 73.1568 74.569C72.3417 73.8563 72.2147 72.3652 72.1861 71.0383C76.7588 73.9266 81.5643 76.3335 84.0309 81.9546" fill="#F9896B"/>
</svg>
